<?xml version="1.0" standalone="no"?>
<!DOCTYPE svg PUBLIC "-//W3C//DTD SVG 20010904//EN"
 "http://www.w3.org/TR/2001/REC-SVG-20010904/DTD/svg10.dtd">
<svg version="1.0" xmlns="http://www.w3.org/2000/svg"
 width="256.000000pt" height="256.000000pt" viewBox="0 0 256.000000 256.000000"
 preserveAspectRatio="xMidYMid meet">
<metadata>
Created by potrace 1.16, written by Peter Selinger 2001-2019
</metadata>
<g transform="translate(0.000000,256.000000) scale(0.100000,-0.100000)"
fill="#000000" stroke="none">
<path d="M131 2543 c-45 -22 -93 -71 -114 -116 -16 -33 -17 -119 -15 -1159 l3
-1123 28 -42 c16 -23 47 -54 70 -70 l42 -28 1135 0 1135 0 42 28 c23 16 54 47
70 70 l28 42 0 1135 0 1135 -28 42 c-16 23 -47 54 -70 70 l-42 28 -1125 2
c-1040 3 -1128 1 -1159 -14z m563 -298 c163 -79 202 -298 75 -424 -152 -153
-409 -73 -447 139 -10 56 4 144 29 177 73 97 143 136 239 130 37 -1 82 -11
104 -22z m1245 -626 c73 -16 149 -60 200 -114 127 -134 155 -295 149 -863 -3
-307 -4 -324 -22 -338 -15 -11 -59 -14 -190 -14 -94 0 -176 4 -183 8 -29 18
-33 70 -33 423 0 333 -1 364 -20 416 -11 31 -30 67 -42 81 -75 81 -241 81
-315 1 -12 -13 -34 -51 -50 -84 l-28 -60 -5 -376 c-4 -298 -8 -379 -19 -392
-20 -25 -351 -25 -375 -1 -14 14 -16 86 -16 644 0 558 2 630 16 644 13 13 45
16 189 16 204 0 205 0 205 -104 l0 -59 53 55 c89 93 179 126 342 127 55 0 120
-4 144 -10z m-1183 -17 c32 -21 34 -50 34 -652 0 -602 -2 -631 -34 -652 -6 -4
-85 -8 -175 -8 -139 0 -167 3 -183 17 -17 15 -18 48 -18 644 0 557 2 629 16
643 13 13 44 16 182 16 92 0 172 -4 178 -8z"/>
</g>
</svg>
